<svg width="28" height="28" viewBox="0 0 28 28" fill="none" xmlns="http://www.w3.org/2000/svg">
<path d="M27.8973 23.3649L26.6641 16.4116C27.1722 15.9528 27.5559 15.3728 27.7795 14.7257C28.0031 14.0787 28.0593 13.3855 27.9428 12.7109C27.8264 12.0363 27.5411 11.4021 27.1135 10.8674C26.6859 10.3328 26.13 9.91502 25.4975 9.65309C25.0315 6.98558 23.6522 4.56323 21.5959 2.8013C19.5396 1.03937 16.9345 0.0476005 14.2271 -0.00398484C11.5197 -0.0555702 8.87862 0.83624 6.75672 2.51856C4.63481 4.20088 3.16419 6.56893 2.59697 9.21675L1.74997 14.0001C1.74997 14.0001 3.6248 14.0001 3.8243 13.9849C5.80583 13.9249 7.75297 13.4516 9.54097 12.5954C9.4048 12.8478 9.33344 13.13 9.3333 13.4168C9.3311 13.7565 9.42786 14.0896 9.61177 14.3753C9.79568 14.661 10.0588 14.887 10.369 15.0257C10.6792 15.1644 11.023 15.2098 11.3586 15.1563C11.6942 15.1028 12.0069 14.9529 12.2586 14.7246C12.5104 14.4964 12.6902 14.1999 12.7763 13.8712C12.8623 13.5424 12.8507 13.1958 12.7431 12.8735C12.6354 12.5512 12.4362 12.2673 12.1699 12.0563C11.9035 11.8453 11.5815 11.7165 11.2431 11.6854C14.4916 9.80456 17.1206 7.01661 18.8078 3.66342C20.0464 4.40446 21.0953 5.4238 21.8715 6.64064C22.6477 7.85749 23.1298 9.23839 23.2796 10.6739L23.3706 11.5443L24.2316 11.6994C24.6567 11.7826 25.0358 12.0204 25.2957 12.3668C25.5556 12.7133 25.6777 13.1439 25.6385 13.5752C25.5994 14.0065 25.4016 14.408 25.0836 14.702C24.7655 14.996 24.3497 15.1616 23.9166 15.1668H22.5761L22.3195 15.8948C21.2496 18.9258 17.6516 22.1668 14 22.1668C12.2378 22.026 10.547 21.4089 9.10854 20.3814C7.67005 19.3539 6.53793 17.9547 5.8333 16.3334H1.33814L0.075802 23.4676C-0.0361037 24.0163 -0.0245968 24.5831 0.10949 25.1269C0.243576 25.6706 0.496887 26.1778 0.851086 26.6116C1.20529 27.0454 1.65151 27.395 2.15746 27.6352C2.66341 27.8753 3.21642 28 3.77647 28.0001H10.5V23.8094C11.613 24.2571 12.8003 24.4914 14 24.5001C15.1995 24.4912 16.3867 24.2573 17.5 23.8106V28.0001H24.2223C24.7993 28.0018 25.3689 27.8706 25.8869 27.6164C26.4048 27.3623 26.8573 26.9921 27.209 26.5348C27.5569 26.0933 27.7997 25.5785 27.9189 25.0293C28.0382 24.48 28.0308 23.9109 27.8973 23.3649Z" fill="#FDFBF2"/>
</svg>
