<svg width="23" height="19" viewBox="0 0 23 19" fill="none" xmlns="http://www.w3.org/2000/svg">
<path d="M20.4711 3.5297C18.3934 1.43981 15.6181 0.189233 12.6762 0.0171549C9.73422 -0.154923 6.83209 0.763579 4.52487 2.59698C2.21765 4.43038 0.667278 7.04999 0.170302 9.95475C-0.326674 12.8595 0.264628 15.8455 1.83111 18.3417L4.02311 16.1487C3.30624 14.7782 2.95533 13.2458 3.00435 11.6999C3.05338 10.154 3.50068 8.64696 4.30295 7.32462C5.10522 6.00229 6.23529 4.90947 7.58376 4.15196C8.93224 3.39445 10.4534 2.9979 12.0001 3.0007C14.3843 3.00902 16.6683 3.96066 18.3531 5.6477L16.0001 8.0007H21.9091C22.0524 8.00083 22.1943 7.9727 22.3268 7.91792C22.4592 7.86314 22.5795 7.78278 22.6809 7.68144C22.7822 7.58011 22.8626 7.45979 22.9173 7.32736C22.9721 7.19493 23.0002 7.05301 23.0001 6.9097V1.0007L20.4711 3.5297Z" fill="white"/>
</svg>
